<svg xmlns="http://www.w3.org/2000/svg" version="1.1" xmlns:xlink="http://www.w3.org/1999/xlink" xmlns:svgjs="http://svgjs.com/svgjs" width="1920" height="1080" preserveAspectRatio="none" viewBox="0 0 1920 1080"><g mask="url(&quot;#SvgjsMask1385&quot;)" fill="none"><rect width="1920" height="1080" x="0" y="0" fill="url(#SvgjsLinearGradient1386)"></rect><path d="M1920 0L1121.87 0L1920 458.15z" fill="rgba(255, 255, 255, .1)"></path><path d="M1121.87 0L1920 458.15L1920 517.6L680.9499999999998 0z" fill="rgba(255, 255, 255, .075)"></path><path d="M680.95 0L1920 517.6L1920 702.85L648.0200000000001 0z" fill="rgba(255, 255, 255, .05)"></path><path d="M648.02 0L1920 702.85L1920 721.4300000000001L459.93999999999994 0z" fill="rgba(255, 255, 255, .025)"></path><path d="M0 1080L561.44 1080L0 767.29z" fill="rgba(0, 0, 0, .1)"></path><path d="M0 767.29L561.44 1080L1106.44 1080L0 719.18z" fill="rgba(0, 0, 0, .075)"></path><path d="M0 719.1800000000001L1106.44 1080L1500.3000000000002 1080L0 384.26000000000005z" fill="rgba(0, 0, 0, .05)"></path><path d="M0 384.26L1500.3000000000002 1080L1653.13 1080L0 268.95z" fill="rgba(0, 0, 0, .025)"></path></g><defs><mask id="SvgjsMask1385"><rect width="1920" height="1080" fill="#ffffff"></rect></mask><linearGradient x1="10.94%" y1="119.44%" x2="89.06%" y2="-19.44%" gradientUnits="userSpaceOnUse" id="SvgjsLinearGradient1386"><stop stop-color="rgba(0, 111, 255, 1)" offset="0.47"></stop><stop stop-color="rgba(0, 111, 255, 1)" offset="0.6"></stop><stop stop-color="rgba(0, 111, 255, 1)" offset="0.74"></stop><stop stop-color="rgba(0, 111, 255, 1)" offset="0.75"></stop><stop stop-color="rgba(0, 111, 255, 1)" offset="1"></stop></linearGradient></defs></svg>