<svg xmlns="http://www.w3.org/2000/svg" version="1.1" xmlns:xlink="http://www.w3.org/1999/xlink" xmlns:svgjs="http://svgjs.com/svgjs" width="1440" height="230" preserveAspectRatio="none" viewBox="0 0 1440 230"><g mask="url(&quot;#SvgjsMask1099&quot;)" fill="none"><path d="M27 230L257 0L485 0L255 230z" fill="url(#SvgjsLinearGradient1100)"></path><path d="M267.6 230L497.6 0L538.1 0L308.1 230z" fill="url(#SvgjsLinearGradient1100)"></path><path d="M522.2 230L752.2 0L1103.2 0L873.2 230z" fill="url(#SvgjsLinearGradient1100)"></path><path d="M715.8000000000001 230L945.8000000000001 0L1185.8000000000002 0L955.8000000000001 230z" fill="url(#SvgjsLinearGradient1100)"></path><path d="M1415 230L1185 0L979.5 0L1209.5 230z" fill="url(#SvgjsLinearGradient1101)"></path><path d="M1164.4 230L934.4000000000001 0L697.4000000000001 0L927.4000000000001 230z" fill="url(#SvgjsLinearGradient1101)"></path><path d="M925.8 230L695.8 0L653.8 0L883.8 230z" fill="url(#SvgjsLinearGradient1101)"></path><path d="M697.1999999999999 230L467.19999999999993 0L273.69999999999993 0L503.69999999999993 230z" fill="url(#SvgjsLinearGradient1101)"></path><path d="M1260.8109695927706 230L1440 50.81096959277059L1440 230z" fill="url(#SvgjsLinearGradient1100)"></path><path d="M0 230L179.1890304072294 230L 0 50.81096959277059z" fill="url(#SvgjsLinearGradient1101)"></path></g><defs><mask id="SvgjsMask1099"><rect width="1440" height="230" fill="#ffffff"></rect></mask><linearGradient x1="0%" y1="100%" x2="100%" y2="0%" id="SvgjsLinearGradient1100"><stop stop-color="rgba(202, 224, 255, 1)" offset="0"></stop><stop stop-opacity="0" stop-color="rgba(202, 224, 255, 1)" offset="0.66"></stop></linearGradient><linearGradient x1="100%" y1="100%" x2="0%" y2="0%" id="SvgjsLinearGradient1101"><stop stop-color="rgba(202, 224, 255, 1)" offset="0"></stop><stop stop-opacity="0" stop-color="rgba(202, 224, 255, 1)" offset="0.66"></stop></linearGradient></defs></svg>