<svg xmlns="http://www.w3.org/2000/svg" version="1.1" xmlns:xlink="http://www.w3.org/1999/xlink" xmlns:svgjs="http://svgjs.com/svgjs" width="1440" height="560" preserveAspectRatio="none" viewBox="0 0 1440 560"><g mask="url(&quot;#SvgjsMask1005&quot;)" fill="none"><rect width="1440" height="560" x="0" y="0" fill="#0e2a47"></rect><path d="M -17.650692993042185,315 C 30.35,300.6 126.35,247.8 222.34930700695782,243 C 318.35,238.2 366.35,292.2 462.3493070069578,291 C 558.35,289.8 606.35,217.8 702.3493070069578,237 C 798.35,256.2 846.35,381.4 942.3493070069578,387 C 1038.35,392.6 1086.35,250.6 1182.3493070069578,265 C 1278.35,279.4 1326.35,476.6 1422.3493070069578,459 C 1518.35,441.4 1658.82,195 1662.3493070069578,177 C 1665.88,159 1484.47,330.6 1440,369" stroke="rgba(51, 121, 194, 0.58)" stroke-width="2"></path><path d="M -3.8648490264704094,81 C 44.14,132.2 140.14,341.4 236.1351509735296,337 C 332.14,332.6 380.14,66.8 476.13515097352956,59 C 572.14,51.2 620.14,274.6 716.1351509735296,298 C 812.14,321.4 860.14,145.6 956.1351509735296,176 C 1052.14,206.4 1100.14,447.4 1196.1351509735296,450 C 1292.14,452.6 1340.14,183.4 1436.1351509735296,189 C 1532.14,194.6 1675.36,465 1676.1351509735296,478 C 1676.91,491 1487.23,298.8 1440,254" stroke="rgba(51, 121, 194, 0.58)" stroke-width="2"></path><path d="M -253.16175572484138,456 C -205.16,381 -109.16,89 -13.161755724841395,81 C 82.84,73 130.84,407.4 226.83824427515862,416 C 322.84,424.6 370.84,145.8 466.8382442751586,124 C 562.84,102.2 610.84,306.4 706.8382442751586,307 C 802.84,307.6 850.84,130.8 946.8382442751586,127 C 1042.84,123.2 1090.84,300.2 1186.8382442751586,288 C 1282.84,275.8 1376.21,42.4 1426.8382442751586,66 C 1477.47,89.6 1437.37,338 1440,406" stroke="rgba(51, 121, 194, 0.58)" stroke-width="2"></path><path d="M -323.2736767660907,209 C -275.27,227.8 -179.27,292.8 -83.27367676609072,303 C 12.73,313.2 60.73,264.2 156.72632323390928,260 C 252.73,255.8 300.73,318.2 396.7263232339093,282 C 492.73,245.8 540.73,43 636.7263232339093,79 C 732.73,115 780.73,457.2 876.7263232339093,462 C 972.73,466.8 1020.73,135.2 1116.7263232339092,103 C 1212.73,70.8 1292.07,306.2 1356.7263232339092,301 C 1421.38,295.8 1423.35,121.8 1440,77" stroke="rgba(51, 121, 194, 0.58)" stroke-width="2"></path></g><defs><mask id="SvgjsMask1005"><rect width="1440" height="560" fill="#ffffff"></rect></mask></defs></svg>